<svg width="72" height="48" viewBox="0 0 72 48" fill="none" xmlns="http://www.w3.org/2000/svg">
<g clip-path="url(#clip0_315_649)">
<path d="M14.1807 13.1064V22.1942H4.76376V13.1064H0.292969V34.7997H4.76376V26.0071H14.1807V34.7997H18.6515V13.1064H14.1807Z" fill="#33475B"/>
<path d="M32.9597 27.7869C32.9597 28.6563 32.57 29.4901 31.8764 30.1049C31.1828 30.7196 30.242 31.065 29.2611 31.065C28.2801 31.065 27.3394 30.7196 26.6457 30.1049C25.9521 29.4901 25.5624 28.6563 25.5624 27.7869V18.4953H21.3216V27.7869C21.3216 29.6513 22.1573 31.4394 23.6448 32.7578C25.1323 34.0761 27.1498 34.8168 29.2534 34.8168C31.357 34.8168 33.3745 34.0761 34.862 32.7578C36.3495 31.4394 37.1852 29.6513 37.1852 27.7869V18.4953H32.9597V27.7869Z" fill="#33475B"/>
<path d="M64.3811 19.4529C64.3811 17.5484 65.8027 16.9446 67.3601 16.9446C68.6153 16.9446 70.2735 17.7911 71.3578 18.8181L74.1353 15.9176C72.7487 14.2558 69.9362 13.1065 67.634 13.1065C63.0339 13.1065 59.7066 15.4944 59.7066 19.4529C59.7066 26.7973 69.8354 24.4676 69.8354 28.5775C69.8354 29.8453 68.4466 30.9655 66.8563 30.9655C64.3482 30.9655 63.5356 29.8783 62.3834 28.729L59.3013 31.5693C61.2728 33.7145 63.7042 34.8036 66.6176 34.8036C70.9876 34.8036 74.5033 32.3866 74.5033 28.6086C74.5033 20.4547 64.3745 22.9882 64.3745 19.4529" fill="#33475B"/>
<path d="M127.042 31.3341C124.536 31.3341 123.824 30.3731 123.824 28.9015V22.3881H127.719V19.0877H123.824V14.7331L119.525 16.4435V29.7111C119.525 33.1047 122.166 34.815 125.789 34.815C126.358 34.8242 126.925 34.7839 127.485 34.6947L128.534 31.272C128.061 31.3011 127.518 31.3302 127.042 31.3302" fill="#33475B"/>
<path d="M49.1025 18.6049C47.0018 18.6049 45.5363 19.1446 44.1191 20.3774V13.2369H39.8717V26.4715C39.8717 31.4259 43.9132 34.8195 48.4541 34.8195C53.4922 34.8195 57.9236 31.3658 57.9236 26.7141C57.9236 22.1208 53.8449 18.6068 49.1025 18.6068V18.6049ZM49.0762 31.0318C48.1231 31.0318 47.1913 30.7813 46.3988 30.312C45.6063 29.8427 44.9887 29.1757 44.6239 28.3952C44.2592 27.6148 44.1638 26.756 44.3497 25.9275C44.5356 25.099 44.9946 24.3379 45.6686 23.7406C46.3425 23.1433 47.2012 22.7365 48.136 22.5717C49.0708 22.4069 50.0398 22.4915 50.9204 22.8148C51.8009 23.138 52.5536 23.6855 53.0831 24.3878C53.6126 25.0902 53.8952 25.916 53.8952 26.7607C53.8952 27.8935 53.3875 28.9799 52.4838 29.7809C51.58 30.5818 50.3543 31.0318 49.0762 31.0318Z" fill="#33475B"/>
<path d="M95.2208 26.5153C95.2208 21.8559 90.7982 18.4099 85.7513 18.4099C81.2104 18.4099 77.169 21.8035 77.169 26.758V40.0003H81.4163V32.8501C82.8314 34.0809 84.299 34.6226 86.3975 34.6226C91.1399 34.6226 95.2186 31.1106 95.2186 26.5153H95.2208ZM91.1991 26.4687C91.1991 27.3134 90.9164 28.1392 90.3869 28.8416C89.8574 29.544 89.1047 30.0914 88.2242 30.4147C87.3436 30.7379 86.3746 30.8225 85.4398 30.6577C84.505 30.4929 83.6464 30.0861 82.9724 29.4888C82.2984 28.8915 81.8395 28.1304 81.6535 27.3019C81.4676 26.4734 81.563 25.6146 81.9277 24.8342C82.2925 24.0538 82.9102 23.3867 83.7027 22.9174C84.4952 22.4481 85.4269 22.1976 86.38 22.1976C87.6581 22.1976 88.8838 22.6476 89.7876 23.4486C90.6913 24.2495 91.1991 25.3359 91.1991 26.4687Z" fill="#33475B"/>
</g>
<defs>
<clipPath id="clip0_315_649">
<rect width="128.626" height="48" fill="white" transform="translate(0.292969)"/>
</clipPath>
</defs>
</svg>
