<svg width="66" height="48" viewBox="0 0 66 48" fill="none" xmlns="http://www.w3.org/2000/svg">
<g clip-path="url(#clip0_315_651)">
<path d="M-42.7781 38.0663C-44.6622 38.3595 -46.5794 38.4474 -48.5627 38.6816L-54.612 22.9786V39.3555C-56.4961 39.5313 -58.215 39.7656 -60 40V10H-54.9754L-48.1 27.0217V10H-42.7781V38.0663ZM-32.3655 20.9863C-30.3159 20.9863 -27.1757 20.8984 -25.2916 20.8984V25.5858C-27.6386 25.5858 -30.3821 25.5858 -32.3655 25.6737V32.6465C-29.2581 32.4708 -26.1509 32.2362 -23.0108 32.1483V36.6597L-37.6545 37.6854V10H-23.0108V14.6875H-32.3655V20.9863ZM-3.34274 14.6876H-8.82991V36.2501C-10.6149 36.2501 -12.4 36.2501 -14.1186 36.3085V14.6876H-19.6057V10H-3.34249L-3.34274 14.6876ZM5.25166 20.6642H12.491V25.3516H5.25166V35.9864H0.0615845V10H14.8379V14.6875H5.25166V20.6642ZM23.4323 31.8848C26.4404 31.9432 29.4814 32.1486 32.4235 32.2948V36.9238C27.6966 36.66 22.9696 36.3966 18.1435 36.3085V10H23.4323V31.8848ZM36.8859 37.2461C38.5717 37.3341 40.3568 37.422 42.0756 37.5975V10H36.8859V37.2461ZM65.2478 10L58.5374 24.2676L65.2478 40C63.2643 39.7656 61.281 39.4433 59.2976 39.1503L55.4963 30.4786L51.6292 38.4474C49.7116 38.1542 47.8605 38.0663 45.9436 37.8319L52.753 24.0917L46.6045 10H52.2898L55.7607 17.8809L59.4631 10H65.2478V10Z" fill="#D81F26"/>
</g>
<defs>
<clipPath id="clip0_315_651">
<rect width="125.241" height="48" fill="white" transform="translate(-60)"/>
</clipPath>
</defs>
</svg>
